<svg xmlns="http://www.w3.org/2000/svg"
shape-rendering="geometricPrecision"
width="512" height="512" viewBox="86 352 314 314">
  <metadata>null</metadata>

<path d="
M 122.478 609.117
C 122.962 605.431 122.316 601.709 122.95 598.015
C 125.445 583.47 132.452 569.734 143.787 560.097
C 148.415 556.162 153.708 552.865 159.399 550.718
C 161.137 550.062 162.905 549.446 164.718 549.035
C 165.039 548.963 166.644 548.868 166.796 548.591
C 166.208 547.638 164.543 546.968 163.581 546.409
C 161.221 545.038 158.756 543.689 156.663 541.925
C 151.362 537.458 148.261 530.758 146.312 524.245
C 141.863 509.38 148.572 492.972 161.111 484.212
C 169.465 478.376 181.199 476.787 190.867 479.691
C 200.079 482.459 207.105 489.544 211.656 497.79
C 214.32 502.616 216.034 508.189 216.209 513.721
C 216.395 519.58 215.082 525.869 212.4 531.096
C 210.167 535.449 207.158 539.919 203.264 542.962
C 201.174 544.595 198.66 545.5 196.54 547.018
C 196.345 547.134 195.971 547.157 195.966 547.384
C 195.961 547.632 198.145 547.635 198.311 547.658
C 199.677 547.853 200.989 548.179 202.311 548.577
C 206.797 549.925 211.166 551.746 215.199 554.145
C 222.921 558.737 229.816 565.127 234.802 572.628
C 237.149 576.159 238.94 579.888 240.998 583.553
C 246.512 571.415 253.857 560.946 265.741 554.185
C 269.737 551.911 273.861 549.633 278.364 548.563
C 279.864 548.207 281.434 547.842 282.964 547.664
C 283.304 547.624 285.604 547.515 285.503 547.241
C 284.665 546.679 283.628 546.464 282.735 545.964
C 280.378 544.644 278.134 542.895 276.12 541.1
C 270.203 535.828 266.841 527.549 265.572 519.881
C 261.961 498.071 281.154 475.935 303.583 478.276
C 323.153 480.318 339.491 499.396 336.658 519.387
C 335.459 527.845 330.265 537.053 323.657 542.475
C 321.165 544.521 318.268 545.911 315.405 547.349
C 315.215 548.457 316.747 548.785 317.623 549.088
C 320.255 550 322.93 550.889 325.343 552.306
C 331.834 556.118 337.791 560.656 342.882 566.213
C 351.163 575.252 356.384 587.096 358.039 599.165
C 358.709 604.057 358.446 609.082 358.468 614.005
C 358.499 620.835 358.616 627.669 358.663 634.501
C 358.7 639.945 358.7 645.388 358.703 650.831
C 358.705 654.32 359.23 657.001 356.16 659.448
C 353.201 660.613 350.544 658.938 348.573 656.87
C 348.162 656.064 348.388 655.02 348.382 654.136
C 348.371 652.345 348.309 650.555 348.306 648.763
C 348.291 641.842 348.309 634.921 348.281 627.999
C 348.24 617.769 349.322 606.793 347.527 596.686
C 345.048 582.727 336.845 571.415 325.385 563.402
C 320.929 560.287 316.289 558.955 311.282 557.153
C 304.067 554.555 295.58 554.297 288.113 555.88
C 275.401 558.573 263.243 565.662 255.659 576.378
C 251.627 582.074 248.731 588.811 246.923 595.542
C 245.211 601.914 245.153 608.551 245.236 615.095
C 245.341 623.392 245.292 631.695 245.487 639.99
C 245.574 643.669 245.498 647.327 245.479 651.005
C 245.471 652.444 245.854 653.9 245.696 655.335
C 245.066 661.056 238.504 660.21 235.557 656.942
C 234.745 655.192 235.25 652.254 235.259 650.342
C 235.28 645.73 235.24 641.117 235.196 636.505
C 235.036 619.701 236.849 602.053 230.976 586.002
C 224.922 569.455 208.861 558.966 192.008 555.921
C 186.61 554.945 180.992 554.516 175.552 555.459
C 158.867 558.351 144.271 569.662 137.096 584.92
C 132.418 594.87 132.346 604.738 132.381 615.511
C 132.405 623.344 132.374 631.177 132.359 639.01
C 132.351 643.173 132.269 647.34 132.3 651.502
C 132.324 654.723 132.777 657.488 129.624 659.399
C 127.044 660.407 123.356 658.62 122.507 655.995
C 121.929 654.206 122.486 651.501 122.43 649.582
C 122.04 636.225 121.608 622.453 122.478 609.117 Z
M 154.483 513.625
C 153.726 526.644 163.203 538.8 176.107 541.148
C 187.147 543.157 198.912 536.853 203.906 527.028
C 205.612 523.67 206.544 519.835 206.729 516.076
C 206.913 512.335 206.311 508.307 204.905 504.831
C 203.427 501.177 201.409 497.658 198.469 494.978
C 186.893 484.424 167.871 486.634 158.96 499.503
C 156.21 503.474 154.76 508.847 154.483 513.625 Z
M 274.958 510.599
C 274.388 514.568 274.667 518.627 275.761 522.485
C 276.662 525.662 278.259 528.537 280.259 531.148
C 282.672 534.298 285.916 537.346 289.607 538.951
C 305.574 545.898 324.659 535.796 326.801 518.181
C 327.289 514.166 327.16 510.374 325.91 506.502
C 324.657 502.62 322.637 498.796 319.755 495.852
C 318.119 494.18 315.836 492.978 313.82 491.857
C 301.792 485.169 286.472 488.005 278.769 499.893
C 276.667 503.138 275.504 506.795 274.958 510.599 Z"
opacity="1" fill="rgb(35,118,51)" fill-rule="evenodd" />
<path d="
M 234.33 403.684
C 236.206 403.031 238.306 403.71 240.238 403.69
C 242.259 403.669 244.172 402.937 246.098 403.848
C 252.874 408.16 250.528 417.594 245.988 422.394
C 246.631 423.096 247.186 423.862 247.779 424.605
C 250.474 425.211 253.912 422.988 254.521 420.305
C 254.785 419.146 254.371 417.849 254.272 416.687
C 254.114 414.809 254.114 412.852 254.366 410.982
C 255.163 405.083 261.383 402.261 266.795 402.637
C 273.406 403.097 279.065 407.033 284.623 410.252
C 291.952 414.497 299.365 418.492 307.489 421.016
C 310.973 422.098 314.499 422.977 318.106 423.555
C 319.565 423.789 321.513 423.985 322.276 425.472
C 323.265 427.399 321.398 429.336 320.193 430.606
C 316.859 434.116 312.189 436.025 307.47 436.77
C 305.117 440.988 301.671 443.199 296.932 444.16
C 295.625 444.424 294.272 444.109 292.959 444.236
C 289.047 449.178 283.137 449.305 277.385 448.521
C 274.121 452.397 267.051 452.677 262.942 449.889
C 260.822 449.964 258.137 452.515 256.192 453.402
C 254.492 454.176 252.979 453.819 251.435 455.095
C 250.619 457.426 253.261 458.136 254.658 459.421
C 254.011 459.973 253.27 459.498 252.509 459.386
C 251.62 459.255 250.817 459.293 249.963 458.932
C 248.924 458.493 247.645 457.354 246.472 457.837
C 246.156 458.728 246.177 459.541 246.192 460.473
C 246.239 461.462 246.303 462.447 246.336 463.437
C 246.228 465.527 246.107 467.285 246.285 469.393
C 246.12 471.595 245.929 473.802 245.918 476.012
C 245.916 476.591 245.619 477.842 246.356 477.879
C 246.584 478.582 246.951 479.121 247.399 479.665
C 246.269 479.891 244.009 480.385 243.63 481.627
C 244.971 482.15 246.44 482.341 247.797 482.838
C 248.975 483.27 250.127 484.041 251.357 484.263
C 251.857 484.487 251.615 484.326 252.055 484.789
C 251.171 485.626 250.16 485.609 250.375 487.068
C 249.855 486.743 249.286 486.526 248.763 486.202
C 246.614 485.095 244.552 483.619 242.367 482.63
C 241.25 482.125 240.028 481.907 238.907 481.376
C 237.226 480.578 235.932 479.54 234.025 479.357
C 233.656 478.818 233.939 478.006 233.991 477.372
C 234.396 476.916 234.226 476.058 234.249 475.487
C 234.33 473.472 234.222 471.455 234.352 469.441
C 234.363 468.47 234.237 467.743 234.433 466.725
C 234.352 464.833 234.228 462.92 234.392 461.027
C 234.907 460.027 234.271 457.601 234.355 456.414
C 234.369 456.354 234.621 455.631 234.441 455.455
C 234.167 455.186 232.699 455.076 232.278 454.988
C 230.708 454.658 229.155 454.291 227.615 453.843
C 225.28 453.165 223.073 452.278 220.914 451.165
C 220.104 450.748 219.16 449.83 218.232 449.971
C 213.869 452.816 207.16 452.888 203.404 448.961
C 201.842 448.406 199.438 449.219 197.779 449.233
C 193.927 449.265 190.447 447.781 188.005 444.799
C 186.678 444.396 185.054 444.695 183.646 444.42
C 178.877 443.491 175.149 441.371 172.862 437.019
C 172.131 436.269 169.64 436.269 168.55 435.912
C 165.284 434.842 162.145 432.939 159.835 430.384
C 158.873 429.322 157.776 428.046 157.986 426.501
C 158.225 424.741 159.95 424.112 161.449 423.779
C 165.203 422.946 168.957 422.174 172.632 421.023
C 180.981 418.408 189.114 414.536 196.623 410.057
C 203.096 406.196 210.067 401.303 218.015 402.978
C 223.346 404.101 226.363 408.872 226.514 414.122
C 226.558 415.625 226.63 417.367 226.515 418.863
C 226.454 419.665 226.165 420.642 226.57 421.399
C 227.826 423.748 231.147 424.383 233.483 425.06
C 234.098 424.249 234.41 422.952 234.72 421.983
C 233.516 420.355 231.857 419.473 230.93 417.476
C 228.856 413.008 229.979 406.358 234.33 403.684 Z
M 163.738 427.913
C 171.278 437.468 186.074 430.517 194.227 425.737
C 196.499 424.406 199.428 421.344 201.998 420.943
C 202.684 421.431 203.729 422.216 203.945 423.06
C 203.237 425.257 201.061 426.136 199.228 427.271
C 195.049 429.86 190.714 432.82 185.948 434.232
C 183.915 434.834 181.77 435.334 179.795 436.081
C 179.145 436.326 178.03 436.316 177.743 436.971
C 184.577 444.078 195.611 437.856 202.053 433.294
C 203.695 432.131 205.221 430.476 206.996 429.557
C 208.066 429.715 208.812 430.34 209.515 431.132
C 209.735 432.979 207.25 434.402 205.992 435.364
C 203.537 437.244 200.844 438.864 198.087 440.255
C 196.194 441.211 194.032 441.789 192.586 443.433
C 193.144 443.893 194.346 444.017 195.05 444.269
C 199.062 445.707 202.99 444.405 206.525 442.191
C 208.23 441.123 210.03 439.054 212.143 439.067
C 212.585 438.368 212.645 437.308 213.014 436.53
C 214.332 433.749 216.327 431.385 218.892 429.68
C 220.149 428.844 221.533 428.194 222.955 427.692
C 223.733 427.418 224.883 427.428 225.547 427
C 224.108 425.025 222.588 423.073 222.356 420.542
C 221.953 416.126 223.731 411.403 219.562 408.301
C 214.9 404.831 208.559 408.159 204.284 410.521
C 197.172 414.449 190.361 418.999 182.829 422.136
C 179.762 423.414 176.601 424.725 173.39 425.588
C 170.193 426.448 166.885 426.868 163.738 427.913 Z
M 207.293 447.134
C 207.391 447.954 208.722 447.517 209.352 447.462
C 211.316 447.292 213.059 447.495 215.035 446.961
C 214.718 446.274 212.7 442.873 212.194 442.946
C 210.848 444.379 208.965 446.09 207.293 447.134 Z
M 215.829 438.552
C 215.262 442.374 218.062 445.685 221.286 447.361
C 227.842 450.767 235.85 451.581 242.949 453.241
C 244.356 453.57 245.83 453.902 247.087 454.645
C 248.105 455.247 248.901 456.177 250.102 456.39
C 251.196 455.77 251.582 453.938 251.094 452.832
C 249.545 450.813 246.645 449.683 244.301 448.882
C 238.618 446.938 232.39 446.299 226.578 444.74
C 223.727 443.975 219.678 441.474 221.4 437.955
C 223.931 435.137 228.734 437.041 231.766 434.686
C 232.398 433.643 231.999 432.189 231.605 431.126
C 230.627 430.203 227.673 430.254 226.388 430.434
C 221.453 431.125 217.676 433.872 215.829 438.552 Z
M 227.112 439.897
C 228.554 441.814 231.422 442.374 233.665 442.801
C 233.195 441.337 233.833 439.328 233.106 438.014
C 231.336 439.304 229.207 439.501 227.112 439.897 Z
M 233.458 411.614
C 233.119 415.466 236.739 420.224 240.975 419.706
C 244.175 419.315 246.527 415.529 246.712 412.654
C 246.937 409.141 243.698 404.951 239.971 404.882
C 236.802 404.822 233.712 408.718 233.458 411.614 Z
M 237.369 423.996
C 236.774 430.264 237.264 437.012 237.644 443.292
C 239.632 443.289 242.109 444.631 244.041 444.098
C 243.872 440.996 243.347 437.927 243.331 434.783
C 243.318 432.155 243.808 429.563 243.811 426.935
C 243.813 424.838 243.203 423.367 241.12 422.604
C 239.898 422.813 238.768 422.999 237.635 423.523
C 237.547 423.681 237.458 423.839 237.369 423.996 Z
M 237.955 457.639
C 237.621 462.101 237.918 466.682 237.952 471.157
C 237.969 473.415 237.676 476.421 238.33 478.565
C 239.019 479.622 240.527 480.107 241.6 479.316
C 242.842 478.119 242.357 475.104 242.384 473.5
C 242.446 469.706 242.317 465.905 242.455 462.112
C 242.511 460.56 243.056 458.632 242.813 457.131
C 241.307 456.821 239.83 456.797 238.318 456.598
C 237.923 457.387 237.992 457.026 237.955 457.639 Z
M 249.081 434.299
C 250.115 434.551 250.69 435.306 251.355 436.085
C 253.162 437.071 255.905 435.433 257.893 436.636
C 260.199 438.032 260.098 440.522 258.367 442.26
C 256.167 444.469 252.589 445.479 249.742 446.527
C 249.935 447.934 252.454 448.881 253.146 450.163
C 253.502 450.245 254.255 449.23 254.682 449.041
C 256.045 448.438 257.567 448.395 258.933 447.729
C 260.784 446.827 262.557 445.723 263.821 444.058
C 268.537 437.846 261.54 431.387 255.607 430.251
C 253.082 429.768 247.016 429.582 248.492 433.977
C 246.976 433.901 247.07 435.284 247.037 436.623
C 246.979 438.946 246.923 441.206 246.967 443.526
C 249.1 443.185 251.252 442.075 253.15 441.097
C 253.548 440.891 256.698 439.879 256.251 439.694
C 253.535 439.122 250.673 438.989 247.934 438.439
C 247.016 437.332 247.461 434.23 249.081 434.299 Z
M 255.702 426.679
C 260.289 428.406 264.335 429.934 267.248 434.222
C 268.131 435.522 268.312 437.071 269.082 438.394
C 274.195 443.235 280.746 446.938 287.471 443.082
C 287.388 442.11 284.006 441.089 283.18 440.62
C 279.974 438.798 276.783 436.906 273.88 434.622
C 272.725 433.713 271.054 432.491 270.757 430.991
C 271.049 429.971 271.834 429.313 272.87 429.143
C 274.843 429.335 276.478 431.813 278.067 432.896
C 283.053 436.295 289.673 440.723 295.991 439.92
C 297.898 439.677 301.772 438.863 302.3 436.507
C 300.039 435.343 297.1 435.101 294.703 434.163
C 290.378 432.471 286.405 430.302 282.444 427.899
C 280.708 426.847 277.011 425.118 276.426 423.059
C 276.462 421.582 277.57 420.095 279.204 420.642
C 281.25 421.327 283.197 423.565 285.011 424.754
C 291.519 429.019 299.543 432.828 307.487 432.352
C 310.649 432.162 315.532 430.68 317.029 427.557
C 310.051 426.098 303.294 424.529 296.736 421.623
C 289.661 418.487 283.406 414.095 276.549 410.602
C 272.415 408.496 265.527 404.796 261.115 408.169
C 257.202 411.16 258.951 415.589 258.778 419.692
C 258.663 422.409 257.366 424.6 255.702 426.679 Z
M 265.724 447.21
C 267.468 447.574 269.614 447.496 271.368 447.207
C 271.872 447.124 273.437 447.079 272.991 446.354
C 271.195 445.528 269.99 444.088 268.307 443.097
C 267.303 444.331 266.673 445.917 265.724 447.21 Z"
opacity="1" fill="rgb(35,109,50)" fill-rule="evenodd" />
<path d="
M 177.468 413.103
C 177.703 411.566 177.731 409.957 178.333 408.503
C 181.129 401.748 188.391 402.308 194.503 402.36
C 196.731 402.379 200.126 401.787 202.194 402.671
C 202.533 403.136 201.359 403.546 201.003 403.756
C 199.515 404.636 198.051 405.546 196.594 406.481
C 193.657 408.367 190.492 409.66 187.455 411.32
C 184.431 412.972 180.973 415.331 177.495 415.827
C 177.151 415.207 177.405 413.814 177.468 413.103 Z"
opacity="1" fill="rgb(39,117,52)" fill-rule="evenodd" />
<path d="
M 177.478 446.306
C 179.832 446.147 183.834 446.964 185.971 447.942
C 185.707 450.207 185.86 452.786 186.112 455.056
C 186.198 455.835 186.533 456.879 187.231 457.331
C 188.85 458.38 192.64 457.582 194.507 457.583
C 199.34 457.585 204.172 457.588 209.005 457.578
C 211.185 457.573 214.082 457.133 216.138 457.881
C 217.087 458.731 218.467 460.334 217.905 461.663
C 216.879 463.113 215.655 465.052 214.247 466.133
C 211.643 466.999 208.016 466.393 205.295 466.38
C 201.078 466.36 196.861 466.392 192.644 466.401
C 188.033 466.41 183.413 466.28 180.153 462.485
C 176.447 458.171 177.086 451.604 177.478 446.306 Z"
opacity="1" fill="rgb(38,115,54)" fill-rule="evenodd" />
<path d="
M 198.946 376.783
C 200.299 377.813 202.04 377.933 203.459 378.814
C 202.786 381.234 202.888 384.63 203.189 387.116
C 203.995 388.066 204.928 388.622 205.071 389.96
C 205.193 391.106 205.066 392.364 204.826 393.487
C 204.188 396.468 200.698 397.846 198.168 395.976
C 196.535 394.77 196.035 390.712 196.865 388.968
C 197.43 388.273 198.291 387.688 198.747 386.936
C 198.748 384.57 198.611 382.205 198.631 379.832
C 198.639 378.992 198.544 377.484 198.946 376.783 Z"
opacity="1" fill="rgb(168,219,52)" fill-rule="evenodd" />
<path d="
M 265.874 382.795
C 264.647 382.261 261.467 384.066 260.275 384.589
C 259.788 384.802 258.738 385.042 258.547 385.557
C 252.715 386.648 247.388 390.845 241.451 391.546
C 239.592 391.766 237.362 390.721 235.622 390.144
C 231.575 388.801 227.542 387.421 223.489 386.113
C 222.165 384.768 219.156 384.188 217.396 383.719
C 216.782 383.556 216.14 383.232 215.519 383.372
C 215.275 382.555 213.556 382.36 212.763 382.058
C 209.835 380.945 206.577 379.209 203.459 378.814
C 202.04 377.933 200.299 377.813 198.946 376.783
C 196.193 374.046 201.511 371.785 203.363 371.112
C 211.088 368.304 218.851 365.597 226.565 362.757
C 229.769 361.578 232.984 360.438 236.195 359.281
C 237.745 358.721 239.351 357.875 241.03 357.842
C 244.516 357.774 248.769 360.416 252.017 361.59
C 258.703 364.009 265.372 366.514 272.098 368.815
C 275.447 369.961 279.712 370.863 282.364 373.298
C 282.928 374.311 282.822 375.584 282.493 376.666
C 281.533 377.372 280.17 377.525 279.065 377.935
C 274.911 379.478 269.585 380.363 265.874 382.795 Z
M 216.203 375.668
C 221.302 377.011 226.507 378.621 231.475 380.398
C 234.311 381.412 237.932 383.291 240.956 383.411
C 242.662 383.479 244.613 382.309 246.179 381.713
C 249.421 380.479 252.768 379.505 256.04 378.355
C 258.367 377.537 260.684 376.639 263.018 375.855
C 263.66 375.64 264.5 375.72 265.035 375.263
C 263.097 373.469 259.328 372.634 256.862 371.748
C 251.638 369.872 246.361 367.273 241.015 365.844
C 239.206 365.975 237.517 367.154 235.827 367.758
C 231.416 369.334 227.117 371.205 222.691 372.745
C 220.833 373.392 217.289 373.957 216.203 375.668 Z"
opacity="1" fill="rgb(42,117,54)" fill-rule="evenodd" />
<path d="
M 215.519 383.372
C 216.14 383.232 216.782 383.556 217.396 383.719
C 219.156 384.188 222.165 384.768 223.489 386.113
C 222.173 386.525 222.423 390.793 222.713 392.102
C 226.34 394.001 230.791 394.916 234.769 395.783
C 236.952 396.258 239.22 396.881 241.471 396.74
C 244.722 396.537 247.931 395.334 251.061 394.511
C 253.615 393.84 256.534 393.373 258.843 392.038
C 259.528 390.414 259.022 387.179 258.547 385.557
C 258.738 385.042 259.788 384.802 260.275 384.589
C 261.467 384.066 264.647 382.261 265.874 382.795
C 265.576 385.596 266.072 388.647 265.986 391.493
C 265.943 392.892 266.176 394.48 265.396 395.747
C 264.665 396.936 263.277 397.667 262.06 398.253
C 258.216 400.105 253.651 401.36 249.455 402.101
C 248.622 402.249 245.352 402.477 246.098 403.848
C 244.172 402.937 242.259 403.669 240.238 403.69
C 238.306 403.71 236.206 403.031 234.33 403.684
C 234.254 403.265 233.61 403.117 233.259 402.993
C 231.967 402.537 230.623 402.232 229.329 401.778
C 226.002 400.609 222.606 399.567 219.395 398.097
C 218.081 397.495 216.533 396.828 215.601 395.68
C 215.188 394.586 215.43 393.161 215.401 391.995
C 215.328 389.118 215.406 386.245 215.519 383.372 Z"
opacity="1" fill="rgb(169,223,55)" fill-rule="evenodd" />
<path d="
M 234.355 456.414
C 234.271 457.601 234.907 460.027 234.392 461.027
C 234.14 458.776 229.538 461.818 228.502 462.4
C 224.457 464.673 219.941 468.891 220.665 474
C 221.666 481.068 229.845 484.898 235.647 487.401
C 237.454 488.18 240.162 488.271 241.587 489.723
C 240.034 489.442 238.198 489.672 236.762 490.258
C 235.009 490.907 231.997 490.976 232.01 488.842
C 231.772 487.326 229.232 486.156 227.865 486.86
C 227.788 486.489 226.675 486.338 226.291 486.088
C 224.999 485.246 223.718 484.359 222.481 483.438
C 218.833 480.725 216.869 477.072 217.07 472.481
C 217.372 465.587 222.429 461.571 227.977 458.546
C 229.379 457.782 232.737 455.681 234.355 456.414 Z"
opacity="1" fill="rgb(140,199,53)" fill-rule="evenodd" />
<path d="
M 227.865 486.86
C 229.232 486.156 231.772 487.326 232.01 488.842
C 228.314 488.532 225.454 494.805 225.769 497.933
C 226.325 503.475 231.133 508.673 236.511 509.831
C 235.98 511.442 234.211 510.813 232.927 511.376
C 232.199 511.691 231.763 511.481 231.017 511.312
C 230.944 510.102 229.494 509.666 228.605 509.145
C 227.095 508.26 225.856 506.826 224.852 505.409
C 222.214 501.687 221.543 496.034 223.677 491.942
C 224.704 489.973 226.437 488.519 227.865 486.86 Z"
opacity="1" fill="rgb(34,122,47)" fill-rule="evenodd" />
<path d="
M 231.017 511.312
C 231.763 511.481 232.199 511.691 232.927 511.376
C 231.313 512.946 229.688 513.696 228.721 515.961
C 226.586 520.959 231.47 526.046 235.54 527.974
C 235.999 528.587 235.421 529.123 235.533 529.855
C 234.057 529.51 233.62 529.826 232.771 530.923
C 233.142 530.103 232.364 529.884 231.763 529.479
C 230.44 528.589 229.359 527.473 228.358 526.241
C 225.479 522.697 224.405 517.805 226.571 513.667
C 227.107 512.644 227.787 511.176 228.804 510.565
C 229.63 510.722 230.241 511.072 231.017 511.312 Z"
opacity="1" fill="rgb(129,201,68)" fill-rule="evenodd" />
<path d="
M 234.433 466.725
C 234.237 467.743 234.363 468.47 234.352 469.441
C 234.211 468.887 233.148 469.541 232.724 469.724
C 231.53 470.239 230.005 471.16 229.897 472.629
C 229.73 474.915 231.941 476.827 233.991 477.372
C 233.939 478.006 233.656 478.818 234.025 479.357
C 233.503 479.536 233.024 479.97 232.489 479.962
C 230.413 478.69 227.549 476.91 226.845 474.43
C 225.707 470.422 230.507 465.969 234.433 466.725 Z"
opacity="1" fill="rgb(110,177,46)" fill-rule="evenodd" />
<path d="
M 232.927 511.376
C 234.211 510.813 235.98 511.442 236.511 509.831
C 239.098 509.97 240.968 510.293 242.573 512.401
C 240.898 511.949 237.955 511.181 236.336 511.876
C 234.729 512.289 234.401 512.853 233.785 514.396
C 233.111 515.904 232.905 517.349 232.958 518.989
C 233.06 522.067 235.074 523.302 237.474 524.843
C 241.549 527.461 247.287 529.991 246.158 535.816
C 245.833 535.962 246.011 535.909 245.621 535.959
C 245.482 534.859 244.326 534.363 243.496 533.815
C 242.024 532.844 240.537 531.89 239.122 530.85
C 238.169 529.722 236.853 528.653 235.54 527.974
C 231.47 526.046 226.586 520.959 228.721 515.961
C 229.688 513.696 231.313 512.946 232.927 511.376 Z"
opacity="1" fill="rgb(222,246,160)" fill-rule="evenodd" />
<path d="
M 236.762 490.258
C 238.198 489.672 240.034 489.442 241.587 489.723
C 242.088 489.949 242.434 490.294 242.992 490.309
C 243.763 491.725 245.177 491.947 246.603 492.381
C 247.322 492.785 247.925 493.329 248.424 493.99
C 251.91 498.617 247.215 501.559 244.233 504.567
C 245.048 505.168 247.742 506.293 248.776 506.194
C 253.324 502.782 256.026 497.514 253.399 492.068
C 252.969 490.243 252.017 489.164 250.591 487.99
C 250.388 487.401 250.462 487.708 250.375 487.068
C 250.16 485.609 251.171 485.626 252.055 484.789
C 253.235 485.02 253.526 486.377 254.374 486.45
C 253.9 487.608 256.306 489.704 256.825 490.948
C 258.069 493.93 258.281 497.63 257.351 500.72
C 256.571 502.707 255.423 504.574 254.03 506.194
C 253.176 507.187 251.648 508.243 251.231 509.498
C 257.359 515.509 255.589 525.002 248.885 529.626
C 249.87 532.489 250.397 535.719 248.936 538.54
C 247.923 540.495 246.262 541.973 245.02 543.764
C 244.28 544.79 243.814 546.1 242.751 546.852
C 240.182 548.668 237.122 546.951 235.466 544.784
C 232.509 540.913 231.118 535.615 232.771 530.923
C 233.62 529.826 234.057 529.51 235.533 529.855
C 236.687 530.196 238.062 530.301 239.122 530.85
C 240.537 531.89 242.024 532.844 243.496 533.815
C 244.326 534.363 245.482 534.859 245.621 535.959
C 245.632 536.101 245.468 536.942 245.608 537.021
C 246.266 537.395 246.623 536.259 246.158 535.816
C 247.287 529.991 241.549 527.461 237.474 524.843
C 235.074 523.302 233.06 522.067 232.958 518.989
C 233.436 519.193 233.927 519.276 234.362 519.557
C 234.718 520.28 235.063 520.861 235.633 521.44
C 236.36 521.426 235.956 519.863 235.918 519.422
C 235.702 516.914 236.408 514.393 236.336 511.876
C 237.955 511.181 240.898 511.949 242.573 512.401
C 243.266 512.685 243.883 513.093 244.554 513.423
C 244.877 514.089 244.439 514.958 244.002 515.46
C 244.357 516.785 246.693 516.11 247.558 516.481
C 248.461 517.292 248.259 518.242 247.967 519.324
C 247.262 521.928 245.442 523.309 244.327 525.612
C 244.665 526.354 245.892 527.351 246.755 527.151
C 247.742 526.216 249.012 525.426 249.87 524.386
C 251.03 523.453 251.397 522.316 251.661 520.899
C 252.066 518.163 252.298 514.639 250.06 512.515
C 249.712 509.627 246.661 508.754 244.55 507.461
C 243.071 506.555 242.357 505.612 240.559 505.332
C 239.199 505.207 238.162 504.519 236.945 503.972
C 234.173 502.728 230 500.982 231.123 496.981
C 231.851 494.389 235.227 492.452 236.762 490.258 Z
M 233.944 498.615
C 233.942 499.147 233.914 498.868 234.05 499.45
C 234.481 499.955 234.962 500.203 235.579 500.435
C 235.817 500.135 235.642 499.089 235.659 498.715
C 235.718 497.45 236.418 496.327 236.142 495.07
C 234.78 495.738 234.452 497.274 233.944 498.615 Z
M 235.879 533.326
C 235.665 534.95 235.53 536.916 236.811 538.146
C 237.979 537.696 238.028 535.205 238.444 534.159
C 238.513 533.985 239.041 533.035 238.821 532.944
C 237.863 533.072 236.794 533 235.879 533.326 Z
M 237.93 543.114
C 237.898 543.262 237.866 543.41 237.834 543.558
C 238.557 544.357 241.534 545.064 242.271 543.952
C 242.437 542.748 241.466 541.267 240.544 540.584
C 238.95 540.783 238.645 541.846 237.93 543.114 Z
M 238.768 492.187
C 238.552 495.224 238.585 499.013 239.66 501.896
C 240.196 502.355 241.165 502.726 241.813 502.288
C 242.076 500.284 241.481 498.026 241.379 496.001
C 241.327 494.961 241.424 493.753 240.843 492.854
C 240.175 492.428 239.551 492.315 238.768 492.187 Z
M 239.478 514.864
C 239.041 517.703 238.572 522.071 241.301 523.881
C 241.236 521.798 241.31 519.583 241.449 517.5
C 241.495 516.805 242.108 515.612 241.771 515.006
C 241.008 514.874 240.249 514.759 239.478 514.864 Z
M 239.513 538.572
C 239.422 538.777 239.331 538.982 239.239 539.186
C 239.397 540.134 240.32 539.76 240.929 539.431
C 242.053 539.025 243.308 538.914 244.383 538.48
C 244.497 538.349 245.028 537.849 244.832 537.595
C 244.799 537.552 244.125 537.899 243.974 537.901
C 242.746 537.918 241.465 537.562 240.265 537.894
C 239.752 538.324 240.003 538.098 239.513 538.572 Z
M 244.527 499.664
C 244.428 500.314 244.441 500.024 244.451 500.531
C 246.206 499.866 247.759 494.294 245.025 495.663
C 245.126 496.94 244.883 498.432 244.527 499.664 Z
M 244.928 517.892
C 244.879 518.437 244.799 518.978 244.793 519.525
C 244.789 519.98 244.798 520.135 244.872 520.583
C 245.37 523.608 245.777 520.647 246.304 519.705
C 246.533 519.295 247.008 519.223 247.245 518.886
C 247.895 517.96 245.633 517.224 244.928 517.892 Z"
opacity="1" fill="rgb(32,113,55)" fill-rule="evenodd" />
<path d="
M 232.489 479.962
C 233.024 479.97 233.503 479.536 234.025 479.357
C 235.932 479.54 237.226 480.578 238.907 481.376
C 240.028 481.907 241.25 482.125 242.367 482.63
C 244.552 483.619 246.614 485.095 248.763 486.202
C 249.286 486.526 249.855 486.743 250.375 487.068
C 250.462 487.708 250.388 487.401 250.591 487.99
C 250.417 488.334 250.07 488.586 250.037 488.958
C 246.295 486.653 242.085 485.32 238.113 483.494
C 236.235 482.631 233.833 481.573 232.489 479.962 Z"
opacity="0.996" fill="rgb(169,218,68)" fill-rule="evenodd" />
<path d="
M 233.785 514.396
C 234.529 515.996 234.199 517.859 234.362 519.557
C 233.927 519.276 233.436 519.193 232.958 518.989
C 232.905 517.349 233.111 515.904 233.785 514.396 Z"
opacity="0.992" fill="rgb(114,164,110)" fill-rule="evenodd" />
<path d="
M 233.944 498.615
C 234.452 497.274 234.78 495.738 236.142 495.07
C 236.418 496.327 235.718 497.45 235.659 498.715
C 235.642 499.089 235.817 500.135 235.579 500.435
C 234.962 500.203 234.481 499.955 234.05 499.45
C 233.914 498.868 233.942 499.147 233.944 498.615 Z"
opacity="0.996" fill="rgb(175,208,200)" fill-rule="evenodd" />
<path d="
M 236.336 511.876
C 236.408 514.393 235.702 516.914 235.918 519.422
C 235.956 519.863 236.36 521.426 235.633 521.44
C 235.063 520.861 234.718 520.28 234.362 519.557
C 234.199 517.859 234.529 515.996 233.785 514.396
C 234.401 512.853 234.729 512.289 236.336 511.876 Z"
opacity="1" fill="rgb(137,183,131)" fill-rule="evenodd" />
<path d="
M 235.54 527.974
C 236.853 528.653 238.169 529.722 239.122 530.85
C 238.062 530.301 236.687 530.196 235.533 529.855
C 235.421 529.123 235.999 528.587 235.54 527.974 Z"
opacity="0.996" fill="rgb(105,190,63)" fill-rule="evenodd" />
<path d="
M 237.93 543.114
C 238.645 541.846 238.95 540.783 240.544 540.584
C 241.466 541.267 242.437 542.748 242.271 543.952
C 241.534 545.064 238.557 544.357 237.834 543.558
C 237.866 543.41 237.898 543.262 237.93 543.114 Z"
opacity="1" fill="rgb(130,183,126)" fill-rule="evenodd" />
<path d="
M 239.513 538.572
C 240.003 538.098 239.752 538.324 240.265 537.894
C 241.465 537.562 242.746 537.918 243.974 537.901
C 244.125 537.899 244.799 537.552 244.832 537.595
C 245.028 537.849 244.497 538.349 244.383 538.48
C 243.308 538.914 242.053 539.025 240.929 539.431
C 240.32 539.76 239.397 540.134 239.239 539.186
C 239.331 538.982 239.422 538.777 239.513 538.572 Z"
opacity="1" fill="rgb(78,166,108)" fill-rule="evenodd" />
<path d="
M 240.559 505.332
C 242.357 505.612 243.071 506.555 244.55 507.461
C 246.661 508.754 249.712 509.627 250.06 512.515
C 247.583 511.022 245.296 509.239 242.834 507.726
C 241.88 507.14 240.543 506.579 240.559 505.332 Z"
opacity="1" fill="rgb(179,236,83)" fill-rule="evenodd" />
<path d="
M 242.992 490.309
C 244.469 490.456 245.624 491.314 246.603 492.381
C 245.177 491.947 243.763 491.725 242.992 490.309 Z"
opacity="1" fill="rgb(159,197,72)" fill-rule="evenodd" />
<path d="
M 244.554 513.423
C 245.913 514.162 246.771 515.163 247.558 516.481
C 246.693 516.11 244.357 516.785 244.002 515.46
C 244.439 514.958 244.877 514.089 244.554 513.423 Z"
opacity="0.996" fill="rgb(91,180,81)" fill-rule="evenodd" />
<path d="
M 244.527 499.664
C 244.883 498.432 245.126 496.94 245.025 495.663
C 247.759 494.294 246.206 499.866 244.451 500.531
C 244.441 500.024 244.428 500.314 244.527 499.664 Z"
opacity="0.996" fill="rgb(192,222,207)" fill-rule="evenodd" />
<path d="
M 244.928 517.892
C 245.633 517.224 247.895 517.96 247.245 518.886
C 247.008 519.223 246.533 519.295 246.304 519.705
C 245.777 520.647 245.37 523.608 244.872 520.583
C 244.798 520.135 244.789 519.98 244.793 519.525
C 244.799 518.978 244.879 518.437 244.928 517.892 Z"
opacity="1" fill="rgb(102,158,130)" fill-rule="evenodd" />
<path d="
M 245.621 535.959
C 246.011 535.909 245.833 535.962 246.158 535.816
C 246.623 536.259 246.266 537.395 245.608 537.021
C 245.468 536.942 245.632 536.101 245.621 535.959 Z"
opacity="1" fill="rgb(78,166,108)" fill-rule="evenodd" />
<path d="
M 246.336 463.437
C 246.673 464.008 246.52 464.73 246.616 465.373
C 248.185 466.969 250.807 467.145 252.414 468.984
C 256.261 473.384 252.125 478.598 247.399 479.665
C 246.951 479.121 246.584 478.582 246.356 477.879
C 248.345 476.504 251.734 473.21 249.543 470.429
C 248.589 469.732 247.45 469.47 246.285 469.393
C 246.107 467.285 246.228 465.527 246.336 463.437 Z"
opacity="1" fill="rgb(165,217,76)" fill-rule="evenodd" />
<path d="
M 254.658 459.421
C 261.684 463.574 265.862 472.288 261.424 479.793
C 259.709 482.694 256.793 484.245 254.374 486.45
C 253.526 486.377 253.235 485.02 252.055 484.789
C 251.615 484.326 251.857 484.487 251.357 484.263
C 254.383 481.074 258.744 479.013 259.254 474.038
C 259.802 468.708 255.743 464.627 251.618 462.02
C 249.857 460.907 248.394 459.583 246.192 460.473
C 246.177 459.541 246.156 458.728 246.472 457.837
C 247.645 457.354 248.924 458.493 249.963 458.932
C 250.817 459.293 251.62 459.255 252.509 459.386
C 253.27 459.498 254.011 459.973 254.658 459.421 Z"
opacity="1" fill="rgb(168,220,58)" fill-rule="evenodd" />
<path d="
M 250.591 487.99
C 252.017 489.164 252.969 490.243 253.399 492.068
C 252.234 491.033 251.391 489.8 250.037 488.958
C 250.07 488.586 250.417 488.334 250.591 487.99 Z"
opacity="1" fill="rgb(35,109,50)" fill-rule="evenodd" />
<path d="
M 251.661 520.899
C 251.397 522.316 251.03 523.453 249.87 524.386
C 250.132 523.005 250.802 521.979 251.661 520.899 Z"
opacity="1" fill="rgb(118,177,51)" fill-rule="evenodd" />
<path d="
M 263.394 461.068
C 264.68 456.909 268.42 457.636 272.006 457.59
C 276.673 457.529 281.344 457.552 286.011 457.612
C 288.548 457.644 291.339 458.028 293.829 457.463
C 294.857 456.863 295.029 455.4 294.969 454.309
C 294.85 452.141 294.903 449.473 295.281 447.349
C 297.091 447.161 298.871 446.873 300.644 446.46
C 301.549 446.25 302.729 445.818 303.622 446.133
C 304.578 453.469 304.171 463.404 295.685 465.897
C 291.408 467.153 285.924 466.293 281.499 466.281
C 278.021 466.27 274.542 466.277 271.064 466.264
C 269.521 466.258 267.452 466.476 265.995 465.882
C 264.334 465.205 263.305 462.732 263.394 461.068 Z"
opacity="1" fill="rgb(37,117,50)" fill-rule="evenodd" />
<path d="
M 278.864 402.372
C 286.704 402.196 299.098 400.287 302.685 409.328
C 303.533 411.467 303.244 413.753 303.414 415.987
C 301.206 415.96 298.404 414.229 296.506 413.197
C 292.422 410.978 288.257 408.837 284.343 406.325
C 282.938 405.422 281.523 404.497 280.07 403.672
C 279.398 403.29 278.768 403.184 278.864 402.372 Z"
opacity="1" fill="rgb(37,115,49)" fill-rule="evenodd" />
<path d="
M 403.957 465.077
C 404.311 463.639 405.636 462.142 406.575 461.019
C 408.235 460.386 410.524 460.762 412.279 460.766
C 415.354 460.774 418.429 460.764 421.504 460.775
C 423.065 460.781 424.948 460.569 426.442 461.041
C 429.722 464.18 431.595 468.532 433.905 472.386
C 437.863 478.987 441.936 485.695 446.327 492.013
C 447.913 492.644 448.322 490.399 448.904 489.393
C 450.611 486.441 452.619 483.635 454.447 480.755
C 457.379 476.135 459.848 471.227 462.677 466.545
C 463.758 464.756 465.029 461.898 467.053 460.995
C 468.062 460.545 469.426 460.8 470.501 460.801
C 473.167 460.802 475.834 460.809 478.5 460.813
C 481.275 460.818 485.553 460.02 487.773 462.005
C 490.224 464.196 489.803 466.985 489.827 470.002
C 489.872 475.983 489.917 481.964 489.954 487.945
C 490.029 499.963 490.141 511.98 490.179 523.998
C 490.189 527.137 490.197 530.277 490.17 533.415
C 490.159 534.778 490.446 536.526 489.688 537.75
C 487.129 541.883 480.06 540.278 475.999 540.273
C 474.382 540.271 472.323 540.611 470.766 540.202
C 469.706 539.516 468.534 538.527 467.756 537.527
C 466.857 534.673 467.353 530.965 467.339 527.997
C 467.309 522.166 467.198 516.325 467.33 510.495
C 467.384 508.16 467.368 505.836 467.348 503.503
C 467.34 502.634 467.736 501.324 467.102 500.602
C 464.035 505.969 460.672 511.216 457.429 516.488
C 455.881 519.005 454.629 522.463 452.564 524.567
C 450.184 526.994 445.151 527.317 442.36 525.544
C 439.637 523.814 438.034 519.844 436.478 517.135
C 434.024 512.864 431.434 508.676 428.886 504.462
C 427.898 502.829 427.029 500.822 425.79 499.4
C 426.297 509.057 426.483 518.833 426.369 528.506
C 426.325 532.183 427.594 536.644 424.469 539.34
C 423.111 540.512 421.01 540.38 419.337 540.366
C 415.366 540.332 411.118 540.69 407.186 540.182
C 406.046 539.453 404.956 538.225 404.045 537.22
C 403.606 534.256 403.908 530.994 403.91 527.996
C 403.914 522.163 403.919 516.329 403.919 510.496
C 403.917 495.395 403.32 480.165 403.957 465.077 Z"
opacity="1" fill="rgb(38,121,51)" fill-rule="evenodd" />
<path d="
M 485.837 571.519
C 486.607 569.962 489.067 568.575 490.727 569.695
C 495.588 575.799 499.347 582.878 503.689 589.365
C 504.098 589.251 504.277 588.591 504.458 588.272
C 505.154 587.041 506.102 585.941 506.922 584.793
C 509.557 581.11 512.396 577.561 514.944 573.816
C 516.131 572.073 517.228 569.801 519.566 569.549
C 523.241 569.152 523.217 573.703 523.255 576.101
C 523.368 583.208 523.299 590.325 523.278 597.433
C 523.272 599.728 524.074 603.54 522.106 605.218
C 521.593 605.382 521.037 605.406 520.499 605.42
C 516.831 605.516 517.121 602.268 517.122 599.502
C 517.123 593.104 518.029 586.266 517.12 579.92
C 513.886 584.212 511.362 589.127 508.473 593.662
C 507.096 595.823 505.716 598.294 502.609 597.413
C 499.848 593.686 497.726 589.53 495.145 585.673
C 494.222 584.294 493.277 582.912 492.532 581.426
C 492.4 581.162 491.9 579.918 491.786 579.877
C 491.58 579.803 491.62 580.282 491.537 580.484
C 491.772 585.123 491.43 589.845 491.405 594.503
C 491.387 597.786 491.758 601.101 491.28 604.345
C 490.572 605.483 488.719 605.387 487.542 605.3
C 484.658 604.34 485.713 599.789 485.699 597.502
C 485.665 592.004 485.737 586.504 485.657 581.007
C 485.613 577.997 485.026 574.439 485.837 571.519 Z"
opacity="1" fill="rgb(28,112,47)" fill-rule="evenodd" />
<path d="
M 506.459 467.117
C 506.765 464.534 507.598 461.269 510.835 460.884
C 514.936 460.396 519.369 460.898 523.502 460.893
C 531.67 460.883 539.836 460.795 548.004 460.765
C 551.67 460.751 555.337 460.75 559.004 460.773
C 560.486 460.782 562.6 460.353 564.001 460.875
C 565.041 461.263 566.715 462.742 567.237 463.71
C 567.827 464.805 567.416 467.013 567.451 468.229
C 567.569 472.269 569.172 478.52 565.168 481.081
C 562.777 481.713 560.148 481.344 557.698 481.463
C 551.323 481.775 544.888 481.538 538.504 481.534
C 536.334 481.532 534.165 481.576 531.996 481.583
C 530.992 481.586 529.761 481.352 529.072 482.102
C 528.762 484.991 528.92 487.989 529.076 490.878
C 536.405 490.136 544.131 490.807 551.499 490.824
C 554.107 490.83 558.416 490.071 560.791 491.248
C 562.444 492.067 563.179 494.05 563.436 495.755
C 564.045 499.801 565.192 507.765 560.766 510.022
C 558.611 511.121 554.859 510.35 552.501 510.354
C 547.167 510.364 541.834 510.316 536.5 510.314
C 534.166 510.314 531.264 509.865 529.021 510.554
C 529.009 513.502 528.273 516.955 528.991 519.841
C 537.236 519.228 545.732 519.737 554.002 519.761
C 556.82 519.769 561.578 518.927 564.125 520.242
C 568.29 522.393 567.282 528.873 567.334 532.707
C 567.352 534.055 567.709 535.983 567.118 537.247
C 566.65 538.25 565.403 539.8 564.426 540.32
C 551.721 541.144 538.735 540.318 525.999 540.277
C 522.582 540.266 519.165 540.274 515.748 540.271
C 514.109 540.269 512.179 540.538 510.573 540.185
C 509.357 539.918 508.148 538.513 507.078 537.85
C 506.237 536.749 506.702 534.354 506.682 533.005
C 506.615 528.503 506.609 524.001 506.583 519.498
C 506.517 508.325 506.446 497.152 506.394 485.979
C 506.365 479.724 506.085 473.361 506.459 467.117 Z"
opacity="1" fill="rgb(38,120,50)" fill-rule="evenodd" />
<path d="
M 544.439 572.584
C 544.843 570.879 545.804 569.648 547.669 569.594
C 552.586 569.453 557.578 569.746 562.505 569.752
C 565.024 569.756 568.242 569.217 570.684 569.84
C 573.36 570.523 573.927 573.658 572.085 575.564
C 570.45 576.365 567.777 575.879 565.998 575.869
C 561.16 575.843 555.931 575.317 551.141 576.011
C 549.624 577.701 550.312 582.324 550.551 584.503
C 554.523 584.377 558.519 584.79 562.501 584.709
C 563.869 584.682 566.056 583.96 567.341 584.54
C 569.429 585.484 570.02 589.097 568.458 590.763
C 562.633 591.245 556.617 590.688 550.769 590.862
C 550.627 593.803 550.815 596.766 550.66 599.696
C 555.519 599.682 560.382 599.743 565.243 599.727
C 568.351 599.716 570.832 599.301 573.065 601.846
C 573.264 602.791 572.934 604.552 572.206 605.228
C 569.249 605.648 565.986 605.279 562.997 605.286
C 557.543 605.299 552.053 605.487 546.606 605.369
C 543.879 603.091 544.383 599.287 544.377 595.995
C 544.363 588.253 543.894 580.304 544.439 572.584 Z"
opacity="1" fill="rgb(39,116,54)" fill-rule="evenodd" />
<path d="
M 581.93 465.066
C 583.259 460.816 586.832 460.914 590.553 460.891
C 597.958 460.845 605.363 460.905 612.768 460.88
C 618.25 460.861 624.156 460.877 629.377 462.787
C 636.121 465.255 642.619 469.534 647.213 475.085
C 655.415 484.996 658.564 499.956 654.64 512.25
C 649.913 527.057 638.842 537.308 623.38 539.981
C 617.084 541.07 610.362 540.348 604 540.319
C 599.499 540.298 594.998 540.279 590.498 540.273
C 587.546 540.27 585.108 540.643 582.946 538.352
C 581.55 536.871 581.798 534.817 581.796 532.912
C 581.792 528.775 581.79 524.639 581.787 520.502
C 581.78 507.835 581.786 495.168 581.775 482.502
C 581.772 478.668 581.777 474.835 581.763 471.002
C 581.756 469.16 581.375 466.842 581.93 465.066 Z
M 604.425 481.809
C 604.289 491.206 604.364 500.61 604.394 510.009
C 604.401 512.292 604.398 514.577 604.441 516.86
C 604.455 517.605 604.393 518.959 604.903 519.46
C 609.41 518.86 614.122 519.754 618.669 519.261
C 622.869 518.805 627.577 516.377 630.281 513.133
C 637.132 504.918 635.077 490.425 626.487 484.301
C 622.747 481.634 617.877 481.77 613.516 481.644
C 611.528 481.587 609.541 481.593 607.553 481.567
C 606.614 481.555 605.251 481.365 604.425 481.809 Z"
opacity="1" fill="rgb(39,120,52)" fill-rule="evenodd" />
<path d="
M 592.93 573.103
C 593.285 570.837 595.145 567.71 597.851 569.844
C 598.851 570.633 599.53 571.9 600.331 572.877
C 601.893 574.785 603.495 576.662 605.082 578.55
C 609.847 584.216 615.104 589.868 619.166 596.061
C 619.288 590.055 619.208 584.02 619.182 578.006
C 619.172 575.86 618.573 572.385 619.62 570.482
C 621.368 568.873 624.14 568.91 624.849 571.555
C 625.496 573.972 625.062 577.306 625.098 579.826
C 625.177 585.384 625.247 590.94 625.282 596.498
C 625.297 598.971 626.073 602.901 623.67 604.574
C 620.799 606.574 617.88 602.988 616.316 601.142
C 611.12 595.009 606.256 588.538 601.119 582.347
C 600.427 581.577 599.793 580.76 599.157 579.943
C 598.816 579.505 598.597 578.204 598.193 578.585
C 597.835 578.921 598.239 579.566 598.265 580.057
C 598.336 581.37 598.322 582.674 598.332 583.989
C 598.372 589.222 598.486 594.439 598.636 599.668
C 598.684 601.325 599.138 604.061 597.324 605.023
C 596.567 605.172 595.864 605.236 595.094 605.168
C 592.317 604.107 593.093 599.831 592.96 597.496
C 592.703 592.985 593.07 588.357 593.061 583.833
C 593.055 580.289 592.638 576.63 592.93 573.103 Z"
opacity="1" fill="rgb(28,108,47)" fill-rule="evenodd" />
<path d="
M 642.377 572.037
C 642.636 571.45 642.492 571.744 642.81 571.157
C 644.382 568.958 647.79 569.728 650.151 569.746
C 655.269 569.786 660.386 569.712 665.504 569.74
C 667.598 569.752 670.428 569.185 672.412 569.852
C 674.446 570.535 674.84 572.967 673.959 574.691
C 673.074 575.884 671.599 575.812 670.24 575.824
C 667.358 575.85 664.47 575.694 661.601 576.003
C 660.814 577.794 661.317 580.67 661.316 582.612
C 661.314 587.572 661.311 592.532 661.303 597.493
C 661.299 599.645 662.185 603.857 659.84 605.069
C 655.627 606.263 655.78 601.76 655.771 599.003
C 655.747 591.359 655.725 583.689 655.88 576.051
C 653.009 575.256 649.312 575.937 646.347 575.906
C 644.511 575.887 642.736 575.584 642.226 573.541
C 642.225 573.01 642.254 572.553 642.377 572.037 Z"
opacity="1" fill="rgb(38,112,53)" fill-rule="evenodd" />
<path d="
M 663.93 465.066
C 664.59 463.555 665.92 461.488 667.55 460.911
C 668.799 460.469 670.486 460.73 671.786 460.735
C 674.858 460.745 677.931 460.75 681.003 460.755
C 695.905 460.78 713.991 458.217 725.731 469.487
C 735.102 478.484 735.625 494.976 728.208 505.159
C 726.624 507.333 724.906 509.581 722.687 511.142
C 721.387 512.056 718.989 512.654 718.085 513.913
C 723.954 521.889 729.164 530.432 735.497 538.05
C 734.564 540.845 731.756 540.534 729.431 540.472
C 723.414 540.311 717.185 541.029 711.221 540.502
C 709.299 539.491 707.661 535.641 706.444 533.834
C 702.859 528.508 699.334 522.96 695.464 517.846
C 692.79 517.355 689.176 517.338 686.448 517.637
C 687.146 521.485 686.545 525.735 686.488 529.634
C 686.43 533.564 686.996 536.86 684.724 540.186
C 683.397 540.792 680.967 540.268 679.5 540.259
C 675.36 540.234 671.184 540.457 667.054 540.36
C 665.928 539.908 665.17 538.835 663.978 538.393
C 663.322 537.194 663.853 534.415 663.846 532.995
C 663.824 528.328 663.883 523.66 663.862 518.993
C 663.807 506.828 663.795 494.663 663.803 482.498
C 663.806 478.665 663.814 474.832 663.811 470.998
C 663.81 469.059 663.58 466.978 663.93 465.066 Z
M 686.679 481.815
C 686.964 487.331 686.849 493.194 686.698 498.723
C 690.784 499.135 695.114 498.81 699.231 498.86
C 701.532 498.888 704.033 499.064 706.094 497.849
C 710.994 494.959 712.281 486.114 706.864 482.937
C 704.356 481.466 701.277 481.602 698.473 481.645
C 694.542 481.705 690.607 481.705 686.679 481.815 Z"
opacity="1" fill="rgb(161,216,54)" fill-rule="evenodd" />
<path d="
M 690.921 583.59
C 692.456 573.62 703.836 567.744 713.167 569.545
C 722.399 571.327 729.644 580.342 728.361 589.904
C 726.328 605.069 706.094 611.31 695.478 600.394
C 691.315 596.113 690.036 589.332 690.921 583.59 Z
M 696.388 586.59
C 696.157 588.242 696.454 589.923 696.965 591.496
C 698.121 595.051 700.427 597.975 703.921 599.444
C 711.352 602.568 721.015 597.979 722.331 589.834
C 723.885 580.215 714.187 572.738 705.021 575.375
C 700.195 576.763 697.053 581.846 696.388 586.59 Z"
opacity="1" fill="rgb(26,105,47)" fill-rule="evenodd" />
<path d="
M 742.347 464.519
C 742.939 463.378 743.738 461.863 745.007 461.362
C 746.587 460.738 748.842 460.958 750.519 460.955
C 754.299 460.949 759.435 459.922 763.006 461.31
C 765.248 463.478 764.931 466.003 764.894 468.883
C 764.844 472.719 765.026 476.543 765.047 480.373
C 765.121 493.604 764.982 506.826 764.968 520.056
C 764.963 524.204 764.961 528.351 764.969 532.499
C 764.973 534.291 765.447 536.518 765.049 538.249
C 763.862 540.54 761.706 540.206 759.504 540.184
C 755.157 540.14 750.803 540.324 746.459 540.151
C 744.588 540.077 742.901 539.627 742.299 537.579
C 741.714 535.59 742.171 532.829 742.183 530.757
C 742.21 526.005 742.235 521.254 742.221 516.502
C 742.186 504.499 742.083 492.497 742.085 480.494
C 742.086 477.024 742.092 473.553 742.084 470.082
C 742.08 468.252 741.802 466.293 742.347 464.519 Z"
opacity="1" fill="rgb(161,214,52)" fill-rule="evenodd" />
<path d="
M 748.878 572.065
C 749.073 571.416 748.946 571.738 749.27 571.1
C 751.531 568.603 756.093 569.577 759.147 569.594
C 764.711 569.624 770.312 568.859 774.94 572.556
C 780.213 576.768 780.854 584.904 776.274 589.917
C 774.935 591.382 773.012 592.288 771.197 593.018
C 772.205 595.812 775.197 598.523 776.879 601
C 777.548 601.986 778.624 603.781 777.44 604.819
C 776.464 605.375 774.881 605.524 773.775 605.447
C 772.495 605.156 771.471 603.253 770.687 602.291
C 768.418 599.506 766.287 596.193 763.499 593.901
C 761.019 593.281 757.987 593.775 755.45 593.858
C 754.248 597.161 756.099 602.24 753.863 605.124
C 752.689 605.231 751.42 605.324 750.267 605.047
C 748.229 603.745 748.909 598.852 748.928 596.782
C 748.978 591.372 748.965 585.958 748.934 580.548
C 748.917 577.755 748.592 574.843 748.878 572.065 Z
M 754.865 576.553
C 754.667 579.377 754.781 582.221 754.845 585.05
C 754.866 585.968 754.543 587.589 754.988 588.366
C 759.173 587.927 763.468 588.801 767.613 587.977
C 768.978 587.706 770.556 587.57 771.716 586.715
C 775.336 584.045 773.777 577.678 770.002 576.001
C 768.5 575.334 766.412 575.562 764.811 575.596
C 761.569 575.664 758.219 575.463 755.013 575.999
C 754.964 576.184 754.915 576.368 754.865 576.553 Z"
opacity="1" fill="rgb(33,105,49)" fill-rule="evenodd" />
<path d="
M 772.903 527.043
C 773.89 524.911 775.3 523.052 776.382 520.97
C 777.935 517.982 778.74 514.621 781.999 513.043
C 783.132 513.743 783.984 514.792 785.132 515.478
C 792.31 519.766 800.04 522.913 808.502 522.941
C 811.914 522.952 821.038 521.495 817.306 515.935
C 816.392 514.574 814.591 513.914 813.115 513.388
C 809.664 512.156 806.151 511.062 802.596 510.175
C 797.891 509.001 793.372 507.531 788.879 505.708
C 785.312 504.261 781.551 502.533 779.018 499.513
C 777.117 497.247 775.885 494.386 775.096 491.558
C 774.58 489.707 774.27 487.779 774.24 485.856
C 774.184 482.359 775.012 478.95 776.388 475.749
C 783.327 459.6 805.528 457.459 820.405 461.416
C 825.271 462.711 829.656 464.68 834.029 467.148
C 836.211 468.38 838.392 470.338 837.632 473.199
C 837.119 473.638 836.596 474.086 836.129 474.573
C 835.562 475.42 835.657 476.411 835.308 477.346
C 834.585 479.286 833.088 481.272 831.971 483.017
C 831.301 484.064 830.724 485.381 829.765 486.191
C 827.169 486.979 825.329 484.788 823.171 483.737
C 819.011 481.709 814.483 479.958 809.863 479.406
C 806.657 479.022 802.656 478.717 799.666 480.133
C 796.978 481.407 796.312 484.457 798.298 486.717
C 799.612 488.213 801.518 488.678 803.349 489.234
C 806.572 490.214 809.771 491.113 813.055 491.863
C 823.204 494.179 836.202 498.161 839.753 509.24
C 840.397 511.25 840.705 513.351 840.763 515.456
C 840.855 518.742 840.35 522.077 839.273 525.187
C 837.321 530.821 832.663 534.788 827.534 537.447
C 815.741 543.559 801.816 542.781 789.503 538.839
C 785.229 537.47 781.112 535.761 777.291 533.382
C 775.525 532.282 773.334 530.695 772.686 528.628
C 772.667 528.039 772.725 527.604 772.903 527.043 Z"
opacity="1" fill="rgb(160,215,55)" fill-rule="evenodd" />
<path d="
M 798.417 578.589
C 800.941 570.031 810.48 567.846 818.367 570.027
C 821.746 570.961 825.011 573.132 826.309 576.497
C 826.66 577.408 827.273 578.655 827 579.638
C 826.447 580.883 823.81 581.309 822.701 580.794
C 821.611 579.935 821.205 578.462 820.199 577.498
C 817.716 575.118 813.622 574.737 810.37 575.112
C 807.608 575.431 802.571 577.782 804.609 581.423
C 805.681 583.338 808.686 583.841 810.591 584.412
C 816.979 586.328 828.931 586.285 828.249 595.895
C 828.161 597.132 827.803 598.401 827.205 599.49
C 823.239 606.702 812.32 606.733 805.467 604.435
C 801.431 603.082 797.661 599.567 798.345 595.009
C 799.082 594.025 800.63 593.88 801.766 593.67
C 803.123 594.924 803.745 596.558 805.355 597.659
C 808.782 600.001 813.72 601.144 817.831 600.1
C 819.906 599.573 822.203 597.851 822.369 595.528
C 822.655 591.514 817.209 591.457 814.619 591.079
C 807.892 590.095 796.706 587.749 798.417 578.589 Z"
opacity="1" fill="rgb(35,108,50)" fill-rule="evenodd" />
<path d="
M 848.412 465.08
C 849.961 459.25 856.367 460.769 861.003 460.772
C 872.169 460.78 883.336 460.747 894.503 460.75
C 897.503 460.75 900.503 460.758 903.504 460.783
C 904.782 460.793 906.486 460.64 907.632 461.318
C 911.798 463.781 910.132 471.455 910.133 475.459
C 910.134 477.307 910.463 479.32 908.754 480.56
C 907.167 481.711 904.861 481.594 903.001 481.58
C 899.125 481.55 895.249 481.458 891.372 481.435
C 884.747 481.397 877.963 481.007 871.359 481.518
C 870.682 483.444 871.269 486.452 871.309 488.488
C 871.323 489.227 871.185 490.176 871.45 490.863
C 879.611 490.552 887.834 490.765 896.001 490.789
C 899.641 490.799 903.257 490.087 905.78 493.215
C 906.64 494.282 906.361 495.896 906.338 497.188
C 906.277 500.603 906.769 504.466 906.241 507.813
C 904.157 511.226 899.91 510.255 896.499 510.253
C 888.104 510.249 879.316 509.526 870.967 510.407
C 871.35 513.39 871.218 516.677 871.067 519.682
C 871.818 520.02 872.743 519.797 873.557 519.786
C 875.371 519.76 877.186 519.757 879 519.758
C 885.833 519.759 892.667 519.739 899.501 519.76
C 903.109 519.772 908.391 518.865 910.511 522.712
C 911.417 524.355 910.755 527.664 910.777 529.501
C 910.822 533.222 911.693 537.579 908.29 540.145
C 904.268 541.101 899.132 540.279 894.997 540.269
C 885.499 540.246 876 540.207 866.502 540.193
C 862.835 540.187 859.167 540.215 855.5 540.2
C 854.17 540.195 852.076 540.617 850.868 540.105
C 850.037 539.401 848.946 538.507 848.403 537.559
C 847.962 534.735 848.354 531.469 848.398 528.6
C 848.491 522.608 848.596 516.624 848.577 510.631
C 848.537 498.455 848.326 486.309 848.544 474.134
C 848.598 471.136 848.228 468.056 848.412 465.08 Z"
opacity="1" fill="rgb(160,214,53)" fill-rule="evenodd" />

</svg>